<svg width="357" height="331" viewBox="0 0 357 331" fill="none" xmlns="http://www.w3.org/2000/svg">
<ellipse cx="178.5" cy="165.5" rx="178.5" ry="165.5" fill="#1092EE"/>
<path d="M140.24 100.72C144.4 100.72 147.44 101.093 149.36 101.84C151.387 102.48 152.827 103.6 153.68 105.2C154.853 107.653 155.44 110.96 155.44 115.12V177.04C155.44 188.24 151.387 198.16 143.28 206.8C135.173 215.333 124.827 219.6 112.24 219.6C105.2 219.6 98.96 218.053 93.52 214.96C88.6133 212.293 85.2 209.893 83.28 207.76L82 206.48C78.2667 202.533 76.4 199.173 76.4 196.4C76.4 193.52 78.2667 190.16 82 186.32C85.7333 182.48 89.04 180.56 91.92 180.56C94.8 180.56 98 182.32 101.52 185.84C105.04 189.36 108.827 191.12 112.88 191.12C117.04 191.12 120.453 189.733 123.12 186.96C125.787 184.187 127.12 180.507 127.12 175.92V116.08C127.12 109.68 128.187 105.573 130.32 103.76C132.773 101.733 136.08 100.72 140.24 100.72ZM182.453 100.56L212.053 100.72C227.519 100.72 241.119 106.32 252.853 117.52C264.586 128.613 270.453 142.32 270.453 158.64C270.453 174.853 264.693 188.773 253.173 200.4C241.759 212.027 227.893 217.84 211.573 217.84H182.293C175.786 217.84 171.733 216.507 170.133 213.84C168.853 211.6 168.213 208.187 168.213 203.6V114.64C168.213 112.08 168.266 110.213 168.373 109.04C168.586 107.867 169.119 106.48 169.973 104.88C171.466 102 175.626 100.56 182.453 100.56ZM212.053 189.52C219.733 189.52 226.666 186.693 232.853 181.04C239.039 175.28 242.133 168.08 242.133 159.44C242.133 150.8 239.093 143.6 233.013 137.84C227.039 131.973 219.999 129.04 211.893 129.04H196.533V189.52H212.053Z" fill="white"/>
</svg>